<svg width="838" height="177" viewBox="0 0 838 177" fill="none" xmlns="http://www.w3.org/2000/svg">
<g clip-path="url(#clip0_175_149)">
<path d="M138.744 20.1588H39.376C28.8432 20.1588 20.3047 28.645 20.3047 39.1133V137.873C20.3047 148.341 28.8432 156.828 39.376 156.828H138.744C149.277 156.828 157.815 148.341 157.815 137.873V39.1133C157.815 28.645 149.277 20.1588 138.744 20.1588Z" fill="#FEF159"/>
<mask id="mask0_175_149" style="mask-type:luminance" maskUnits="userSpaceOnUse" x="0" y="0" width="179" height="177">
<path d="M153.392 0H24.7296C11.084 0 0.0219727 10.9943 0.0219727 24.5564V152.431C0.0219727 165.993 11.084 176.988 24.7296 176.988H153.392C167.038 176.988 178.1 165.993 178.1 152.431V24.5564C178.1 10.9943 167.038 0 153.392 0Z" fill="white"/>
</mask>
<g mask="url(#mask0_175_149)">
<path d="M169.987 142.005C169.987 186.422 133.756 222.443 89.0525 222.443C44.3488 222.443 8.13086 186.435 8.13086 142.005C8.13086 97.5747 44.3613 61.5784 89.0525 61.5784C133.744 61.5784 169.987 97.5871 169.987 142.017V142.005ZM89.0525 76.7942C52.8221 76.7942 23.4404 105.984 23.4404 142.005C23.4404 178.026 52.8096 207.215 89.0525 207.215C125.295 207.215 154.665 178.026 154.665 142.005C154.665 105.984 125.295 76.7942 89.0525 76.7942Z" fill="#338C4F"/>
<path d="M141.87 142.007C141.87 170.998 118.224 194.498 89.0549 194.498C59.8856 194.498 36.2402 170.998 36.2402 142.007C36.2402 113.016 59.8856 89.5156 89.0549 89.5156C118.224 89.5156 141.87 113.016 141.87 142.007ZM89.0549 99.4524C65.4095 99.4524 46.2383 118.506 46.2383 142.007C46.2383 165.508 65.4095 184.561 89.0549 184.561C112.7 184.561 131.872 165.508 131.872 142.007C131.872 118.506 112.7 99.4524 89.0549 99.4524Z" fill="#338C4F"/>
<path d="M204.058 142.007C204.058 205.131 152.568 256.293 89.0675 256.293C25.5674 256.293 -25.9351 205.131 -25.9351 142.007C-25.9351 78.8834 25.5549 27.7211 89.055 27.7211C152.555 27.7211 204.045 78.8958 204.045 142.007H204.058ZM89.055 49.3586C37.565 49.3586 -4.17681 90.8449 -4.17681 142.02C-4.17681 193.194 37.565 234.681 89.055 234.681C140.545 234.681 182.287 193.194 182.287 142.02C182.287 90.8449 140.545 49.3586 89.055 49.3586Z" fill="#338C4F"/>
<path d="M120.29 142.011C120.29 159.152 106.305 173.051 89.0588 173.051C71.8122 173.051 57.8274 159.152 57.8274 142.011C57.8274 124.87 71.8122 110.971 89.0588 110.971C106.305 110.971 120.29 124.87 120.29 142.011ZM89.0588 116.473C74.8741 116.473 63.3638 127.901 63.3638 142.011C63.3638 156.121 74.8616 167.549 89.0588 167.549C103.256 167.549 114.754 156.121 114.754 142.011C114.754 127.901 103.256 116.473 89.0588 116.473Z" fill="#338C4F"/>
</g>
<path d="M0.0124978 152.444V24.5564C0.0124978 10.9926 11.0728 0 24.7077 0H153.383C167.03 0 178.09 10.9926 178.09 24.5564V152.444C178.09 166.007 167.03 177 153.383 177H24.7077C11.0603 177 0 166.007 0 152.444H0.0124978ZM39.3798 156.828H138.735C149.271 156.828 157.807 148.345 157.807 137.874V39.1263C157.807 28.6554 149.271 20.1718 138.735 20.1718H39.3673C28.8319 20.1718 20.296 28.6554 20.296 39.1263V137.874C20.296 148.345 28.8319 156.828 39.3673 156.828H39.3798Z" fill="#338C4F"/>
<path d="M84.615 146.818V138.024H93.4633V146.818H84.615ZM87.4145 144.036H90.6638V140.806H87.4145V144.036ZM84.2026 156.892V153.625H80.5658C79.8284 153.625 79.1786 153.339 78.6162 152.78C78.0538 152.221 77.7664 151.576 77.7664 150.843V147.228H74.4795V144.446H77.7664V140.185H74.4795V137.403H77.7664V133.789C77.7664 133.056 78.0538 132.41 78.6162 131.851C79.1786 131.292 79.8284 131.006 80.5658 131.006H84.2026V127.889H87.002V131.006H91.2887V127.889H94.0882V131.006H97.7249C98.4623 131.006 99.1122 131.292 99.6746 131.851C100.237 132.41 100.524 133.056 100.524 133.789V137.403H103.661V140.185H100.524V144.446H103.661V147.228H100.524V150.843C100.524 151.576 100.237 152.221 99.6746 152.78C99.1122 153.339 98.4623 153.625 97.7249 153.625H94.0882V156.892H91.2887V153.625H87.002V156.892H84.2026ZM97.7125 150.843V133.801H80.5658V150.843H97.7125Z" fill="#338C4F"/>
<path d="M229.5 109L253.82 15.56H269.308L293.5 109H281.852L275.708 84.168H247.42L241.276 109H229.5ZM249.724 74.44H273.276L266.108 45.64C264.742 40.1787 263.676 35.6133 262.908 31.944C262.14 28.2747 261.67 25.8853 261.5 24.776C261.329 25.8853 260.86 28.2747 260.092 31.944C259.324 35.6133 258.257 40.136 256.892 45.512L249.724 74.44ZM330.314 109L306.25 15.56H318.154L334.026 79.048C335.135 83.4853 336.074 87.624 336.842 91.464C337.61 95.2187 338.164 98.0773 338.506 100.04C338.847 98.0773 339.359 95.2187 340.042 91.464C340.81 87.624 341.748 83.4853 342.858 79.048L358.602 15.56H370.25L346.058 109H330.314ZM390.04 109V98.504H409.112V26.056H390.04V15.56H439.96V26.056H420.888V98.504H439.96V109H390.04ZM491.75 110.28C486.118 110.28 481.254 109.213 477.158 107.08C473.147 104.947 470.032 101.875 467.814 97.864C465.68 93.768 464.614 88.9467 464.614 83.4V41.16C464.614 35.528 465.68 30.7067 467.814 26.696C470.032 22.6853 473.147 19.6133 477.158 17.48C481.254 15.3467 486.118 14.28 491.75 14.28C497.382 14.28 502.203 15.3467 506.214 17.48C510.31 19.6133 513.424 22.6853 515.558 26.696C517.776 30.7067 518.886 35.4853 518.886 41.032V83.4C518.886 88.9467 517.776 93.768 515.558 97.864C513.424 101.875 510.31 104.947 506.214 107.08C502.203 109.213 497.382 110.28 491.75 110.28ZM491.75 99.912C496.784 99.912 500.624 98.504 503.27 95.688C506 92.7867 507.366 88.6907 507.366 83.4V41.16C507.366 35.8693 506 31.816 503.27 29C500.624 26.0987 496.784 24.648 491.75 24.648C486.8 24.648 482.96 26.0987 480.23 29C477.499 31.816 476.134 35.8693 476.134 41.16V83.4C476.134 88.6907 477.499 92.7867 480.23 95.688C482.96 98.504 486.8 99.912 491.75 99.912ZM541.62 109V15.56H556.98L585.524 95.56C585.353 93.4267 585.14 90.824 584.884 87.752C584.713 84.5947 584.542 81.3093 584.372 77.896C584.286 74.3973 584.244 71.112 584.244 68.04V15.56H595.38V109H580.02L551.604 29C551.774 31.048 551.945 33.6507 552.116 36.808C552.286 39.88 552.414 43.1653 552.5 46.664C552.67 50.0773 552.756 53.3627 552.756 56.52V109H541.62ZM620.29 109V98.504H639.362V26.056H620.29V15.56H670.21V26.056H651.138V98.504H670.21V109H620.29ZM722.512 110.28C716.88 110.28 711.973 109.213 707.792 107.08C703.696 104.947 700.496 101.875 698.192 97.864C695.973 93.768 694.864 88.9467 694.864 83.4V41.16C694.864 35.528 695.973 30.7067 698.192 26.696C700.496 22.6853 703.696 19.6133 707.792 17.48C711.973 15.3467 716.88 14.28 722.512 14.28C728.144 14.28 733.008 15.3893 737.104 17.608C741.2 19.7413 744.357 22.8133 746.576 26.824C748.794 30.8347 749.904 35.6133 749.904 41.16H738.384C738.384 35.8693 736.976 31.816 734.16 29C731.429 26.0987 727.546 24.648 722.512 24.648C717.477 24.648 713.509 26.056 710.608 28.872C707.792 31.688 706.384 35.7413 706.384 41.032V83.4C706.384 88.6907 707.792 92.7867 710.608 95.688C713.509 98.504 717.477 99.912 722.512 99.912C727.546 99.912 731.429 98.504 734.16 95.688C736.976 92.7867 738.384 88.6907 738.384 83.4H749.904C749.904 88.8613 748.794 93.64 746.576 97.736C744.357 101.747 741.2 104.861 737.104 107.08C733.008 109.213 728.144 110.28 722.512 110.28ZM799.262 110.28C793.118 110.28 787.827 109.256 783.39 107.208C779.038 105.16 775.667 102.216 773.278 98.376C770.888 94.536 769.651 89.9707 769.566 84.68H781.086C781.086 89.3733 782.664 93.0853 785.822 95.816C789.064 98.5467 793.544 99.912 799.262 99.912C804.638 99.912 808.819 98.5893 811.806 95.944C814.878 93.2987 816.414 89.6293 816.414 84.936C816.414 81.1813 815.39 77.896 813.342 75.08C811.379 72.264 808.52 70.3013 804.766 69.192L792.094 65.224C785.694 63.2613 780.744 59.976 777.246 55.368C773.832 50.76 772.126 45.3413 772.126 39.112C772.126 34.0773 773.235 29.7253 775.454 26.056C777.758 22.3013 780.958 19.4 785.054 17.352C789.15 15.2187 793.971 14.152 799.518 14.152C807.71 14.152 814.28 16.456 819.23 21.064C824.179 25.5867 826.696 31.6453 826.782 39.24H815.262C815.262 34.632 813.854 31.048 811.038 28.488C808.307 25.8427 804.424 24.52 799.39 24.52C794.44 24.52 790.558 25.7147 787.742 28.104C785.011 30.4933 783.646 33.8213 783.646 38.088C783.646 41.928 784.67 45.256 786.718 48.072C788.766 50.888 791.71 52.8933 795.55 54.088L808.35 58.184C814.579 60.1467 819.4 63.4747 822.814 68.168C826.227 72.8613 827.934 78.3653 827.934 84.68C827.934 89.8 826.739 94.28 824.35 98.12C821.96 101.96 818.59 104.947 814.238 107.08C809.971 109.213 804.979 110.28 799.262 110.28Z" fill="#338C4F"/>
<path d="M225.74 165V135.8H231.06L233.98 145.16C234.273 146.04 234.526 146.893 234.74 147.72C234.953 148.52 235.1 149.12 235.18 149.52C235.286 149.12 235.433 148.52 235.62 147.72C235.833 146.893 236.073 146.04 236.34 145.16L239.14 135.8H244.46V165H240.38V155.16C240.38 153.907 240.406 152.52 240.46 151C240.54 149.453 240.646 147.907 240.78 146.36C240.913 144.787 241.046 143.293 241.18 141.88C241.313 140.44 241.433 139.187 241.54 138.12L237.22 152.32H233.06L228.66 138.12C228.793 139.16 228.926 140.373 229.06 141.76C229.193 143.12 229.313 144.573 229.42 146.12C229.526 147.667 229.62 149.227 229.7 150.8C229.78 152.347 229.82 153.8 229.82 155.16V165H225.74ZM259.244 165.4C257.431 165.4 255.844 165.067 254.484 164.4C253.151 163.707 252.111 162.72 251.364 161.44C250.644 160.133 250.284 158.613 250.284 156.88V143.92C250.284 142.16 250.644 140.64 251.364 139.36C252.111 138.08 253.151 137.107 254.484 136.44C255.844 135.747 257.431 135.4 259.244 135.4C261.057 135.4 262.631 135.747 263.964 136.44C265.297 137.133 266.324 138.12 267.044 139.4C267.791 140.653 268.164 142.16 268.164 143.92H263.844C263.844 142.4 263.444 141.24 262.644 140.44C261.844 139.64 260.711 139.24 259.244 139.24C257.777 139.24 256.631 139.64 255.804 140.44C255.004 141.24 254.604 142.387 254.604 143.88V156.88C254.604 158.373 255.004 159.533 255.804 160.36C256.631 161.16 257.777 161.56 259.244 161.56C260.711 161.56 261.844 161.16 262.644 160.36C263.444 159.533 263.844 158.373 263.844 156.88H268.164C268.164 158.613 267.791 160.12 267.044 161.4C266.324 162.68 265.297 163.667 263.964 164.36C262.631 165.053 261.057 165.4 259.244 165.4ZM283.228 165.4C281.415 165.4 279.828 165.067 278.468 164.4C277.135 163.707 276.095 162.72 275.348 161.44C274.628 160.133 274.268 158.613 274.268 156.88V143.92C274.268 142.16 274.628 140.64 275.348 139.36C276.095 138.08 277.135 137.107 278.468 136.44C279.828 135.747 281.415 135.4 283.228 135.4C285.042 135.4 286.615 135.747 287.948 136.44C289.282 137.133 290.308 138.12 291.028 139.4C291.775 140.653 292.148 142.16 292.148 143.92H287.828C287.828 142.4 287.428 141.24 286.628 140.44C285.828 139.64 284.695 139.24 283.228 139.24C281.762 139.24 280.615 139.64 279.788 140.44C278.988 141.24 278.588 142.387 278.588 143.88V156.88C278.588 158.373 278.988 159.533 279.788 160.36C280.615 161.187 281.762 161.6 283.228 161.6C284.695 161.6 285.828 161.187 286.628 160.36C287.428 159.533 287.828 158.373 287.828 156.88V153.6H282.388V149.8H292.148V156.88C292.148 158.613 291.775 160.12 291.028 161.4C290.308 162.68 289.282 163.667 287.948 164.36C286.615 165.053 285.042 165.4 283.228 165.4ZM298.973 165V161.16H304.853V139.64H298.973V135.8H315.133V139.64H309.253V161.16H315.133V165H298.973ZM323.397 165V135.8H327.717V161.04H340.477V165H323.397ZM347.381 165V135.8H351.701V161.04H364.461V165H347.381ZM394.35 165V135.8H403.51C405.35 135.8 406.95 136.16 408.31 136.88C409.67 137.573 410.724 138.56 411.47 139.84C412.244 141.12 412.63 142.627 412.63 144.36C412.63 146.307 412.124 148 411.11 149.44C410.124 150.853 408.777 151.853 407.07 152.44L413.03 165H408.11L402.79 153H398.67V165H394.35ZM398.67 149.2H403.51C404.95 149.2 406.097 148.773 406.95 147.92C407.804 147.04 408.23 145.88 408.23 144.44C408.23 142.947 407.804 141.773 406.95 140.92C406.097 140.067 404.95 139.64 403.51 139.64H398.67V149.2ZM426.975 165.4C425.161 165.4 423.588 165.067 422.255 164.4C420.948 163.707 419.935 162.72 419.215 161.44C418.521 160.133 418.175 158.613 418.175 156.88V143.92C418.175 142.16 418.521 140.64 419.215 139.36C419.935 138.08 420.948 137.107 422.255 136.44C423.588 135.747 425.161 135.4 426.975 135.4C428.788 135.4 430.348 135.747 431.655 136.44C432.988 137.107 434.001 138.08 434.695 139.36C435.415 140.64 435.775 142.147 435.775 143.88V156.88C435.775 158.613 435.415 160.133 434.695 161.44C434.001 162.72 432.988 163.707 431.655 164.4C430.348 165.067 428.788 165.4 426.975 165.4ZM426.975 161.56C428.441 161.56 429.548 161.16 430.295 160.36C431.068 159.533 431.455 158.373 431.455 156.88V143.92C431.455 142.4 431.068 141.24 430.295 140.44C429.548 139.64 428.441 139.24 426.975 139.24C425.535 139.24 424.428 139.64 423.655 140.44C422.881 141.24 422.495 142.4 422.495 143.92V156.88C422.495 158.373 422.881 159.533 423.655 160.36C424.428 161.16 425.535 161.56 426.975 161.56ZM451.119 165.4C449.306 165.4 447.719 165.067 446.359 164.4C445.026 163.707 443.986 162.72 443.239 161.44C442.519 160.133 442.159 158.613 442.159 156.88V143.92C442.159 142.16 442.519 140.64 443.239 139.36C443.986 138.08 445.026 137.107 446.359 136.44C447.719 135.747 449.306 135.4 451.119 135.4C452.932 135.4 454.506 135.747 455.839 136.44C457.172 137.133 458.199 138.12 458.919 139.4C459.666 140.653 460.039 142.16 460.039 143.92H455.719C455.719 142.4 455.319 141.24 454.519 140.44C453.719 139.64 452.586 139.24 451.119 139.24C449.652 139.24 448.506 139.64 447.679 140.44C446.879 141.24 446.479 142.387 446.479 143.88V156.88C446.479 158.373 446.879 159.533 447.679 160.36C448.506 161.16 449.652 161.56 451.119 161.56C452.586 161.56 453.719 161.16 454.519 160.36C455.319 159.533 455.719 158.373 455.719 156.88H460.039C460.039 158.613 459.666 160.12 458.919 161.4C458.199 162.68 457.172 163.667 455.839 164.36C454.506 165.053 452.932 165.4 451.119 165.4ZM466.303 165V135.8H470.623V147.96H474.503L480.463 135.8H485.183L478.303 149.8L485.503 165H480.663L474.423 151.84H470.623V165H466.303ZM490.688 165V135.8H507.848V139.64H494.928V147.92H506.448V151.72H494.928V161.16H507.848V165H490.688ZM520.752 165V139.76H512.952V135.76H532.872V139.76H525.072V165H520.752ZM568.721 165V139.76H560.921V135.76H580.841V139.76H573.041V165H568.721ZM586.625 165V135.8H603.785V139.64H590.865V147.92H602.385V151.72H590.865V161.16H603.785V165H586.625ZM608.57 165L616.01 135.8H621.69L629.13 165H624.77L623.01 157.6H614.73L612.97 165H608.57ZM615.53 154.04H622.17L620.17 145.6C619.823 144.107 619.53 142.813 619.29 141.72C619.076 140.6 618.93 139.84 618.85 139.44C618.77 139.84 618.623 140.6 618.41 141.72C618.196 142.813 617.903 144.093 617.53 145.56L615.53 154.04ZM633.474 165V135.8H638.794L641.714 145.16C642.007 146.04 642.261 146.893 642.474 147.72C642.687 148.52 642.834 149.12 642.914 149.52C643.021 149.12 643.167 148.52 643.354 147.72C643.567 146.893 643.807 146.04 644.074 145.16L646.874 135.8H652.194V165H648.114V155.16C648.114 153.907 648.141 152.52 648.194 151C648.274 149.453 648.381 147.907 648.514 146.36C648.647 144.787 648.781 143.293 648.914 141.88C649.047 140.44 649.167 139.187 649.274 138.12L644.954 152.32H640.794L636.394 138.12C636.527 139.16 636.661 140.373 636.794 141.76C636.927 143.12 637.047 144.573 637.154 146.12C637.261 147.667 637.354 149.227 637.434 150.8C637.514 152.347 637.554 153.8 637.554 155.16V165H633.474Z" fill="#787878"/>
</g>
<defs>
<clipPath id="clip0_175_149">
<rect width="837.1" height="177" fill="white"/>
</clipPath>
</defs>
</svg>
